<?xml version="1.0" encoding="UTF-8"?><svg id="B_R_Logo_RGB_33px" xmlns="http://www.w3.org/2000/svg" viewBox="0 0 152.57 64.6"><defs><style>.cls-1{fill:#f80;}</style></defs><g><path d="M19.26,33.66l2,5.28h-1.05l-.43-1.24h-2.13l-.42,1.24h-1.05l2-5.28h1.07Zm-1.33,3.22h1.57l-.79-2.31-.79,2.31Z"/><path d="M25.8,34.86c.28,0,.52,.07,.72,.22,.2,.15,.36,.36,.46,.64,.13-.27,.31-.48,.56-.63,.25-.15,.54-.22,.87-.22,.46,0,.82,.15,1.08,.45,.26,.3,.39,.72,.39,1.26v2.37h-.92v-2.31c0-.32-.07-.55-.2-.71s-.33-.24-.59-.24c-.28,0-.51,.09-.67,.28-.16,.19-.24,.45-.24,.78v2.2h-.92v-2.31c0-.32-.07-.55-.2-.71s-.33-.24-.59-.24c-.29,0-.51,.1-.67,.29-.16,.19-.24,.46-.24,.81v2.17h-.92v-3.97h.85v.6c.13-.23,.3-.41,.51-.53,.21-.12,.46-.18,.73-.18Z"/><path d="M34.42,38.61c-.17,.14-.39,.25-.65,.33s-.56,.11-.88,.11c-.67,0-1.19-.19-1.57-.56-.38-.37-.57-.88-.57-1.54,0-.42,.09-.79,.26-1.11,.17-.32,.41-.56,.71-.73,.3-.17,.63-.26,1-.26,.54,0,.97,.17,1.28,.52s.47,.81,.47,1.4v.44h-2.79c.04,.34,.16,.61,.38,.79s.5,.28,.86,.28c.22,0,.44-.03,.67-.09,.23-.06,.41-.15,.56-.25l.29,.66Zm-1.74-3.01c-.27,0-.5,.08-.68,.25-.18,.17-.29,.4-.33,.69h1.91c-.02-.3-.1-.53-.26-.7-.16-.17-.37-.25-.65-.25Z"/><path d="M37.41,34.86c.28,0,.52,.07,.72,.22,.2,.15,.36,.36,.46,.64,.13-.27,.31-.48,.56-.63,.25-.15,.54-.22,.87-.22,.46,0,.82,.15,1.08,.45,.26,.3,.39,.72,.39,1.26v2.37h-.92v-2.31c0-.32-.07-.55-.2-.71s-.33-.24-.59-.24c-.28,0-.51,.09-.67,.28-.16,.19-.24,.45-.24,.78v2.2h-.92v-2.31c0-.32-.07-.55-.2-.71s-.33-.24-.59-.24c-.29,0-.51,.1-.67,.29-.16,.19-.24,.46-.24,.81v2.17h-.92v-3.97h.85v.6c.13-.23,.3-.41,.51-.53,.21-.12,.46-.18,.73-.18Z"/><path d="M42.54,38.94v-5.66h.92v2.3c.14-.23,.33-.4,.56-.53,.23-.13,.49-.19,.78-.19,.36,0,.68,.09,.96,.28s.5,.43,.65,.75c.15,.32,.22,.68,.22,1.07s-.08,.78-.24,1.1-.38,.56-.66,.73c-.28,.17-.59,.26-.93,.26-.29,0-.55-.06-.79-.19-.24-.12-.43-.3-.57-.53v.61h-.9Zm2.04-.7c.33,0,.59-.12,.8-.36,.21-.24,.31-.54,.31-.92s-.1-.68-.31-.92-.48-.37-.8-.37c-.34,0-.62,.12-.84,.36s-.33,.55-.33,.93,.11,.68,.33,.92c.22,.24,.5,.36,.84,.36Z"/><path d="M51,38.61c-.17,.14-.39,.25-.65,.33s-.56,.11-.88,.11c-.67,0-1.19-.19-1.57-.56-.38-.37-.57-.88-.57-1.54,0-.42,.09-.79,.26-1.11,.17-.32,.41-.56,.71-.73,.3-.17,.63-.26,1-.26,.54,0,.97,.17,1.28,.52s.47,.81,.47,1.4v.44h-2.79c.04,.34,.16,.61,.38,.79s.5,.28,.86,.28c.22,0,.44-.03,.67-.09,.23-.06,.41-.15,.56-.25l.29,.66Zm-1.74-3.01c-.27,0-.5,.08-.68,.25-.18,.17-.29,.4-.33,.69h1.91c-.02-.3-.1-.53-.26-.7-.16-.17-.37-.25-.65-.25Z"/><path d="M54.32,35.81c-.08-.03-.22-.04-.41-.04-.35,0-.62,.1-.81,.31-.19,.21-.29,.5-.29,.86v1.99h-.92v-3.97h.85v.73c.12-.25,.28-.45,.49-.58,.21-.14,.45-.21,.72-.21,.12,0,.24,.02,.36,.06v.84Z"/><path d="M58.85,39.05c-.41,0-.78-.09-1.1-.28s-.57-.43-.74-.75c-.17-.32-.26-.67-.26-1.06,0-.41,.09-.78,.28-1.1,.19-.32,.44-.57,.76-.74,.32-.17,.67-.26,1.07-.26s.77,.09,1.09,.28c.32,.19,.57,.44,.74,.76,.17,.32,.26,.67,.26,1.07s-.09,.77-.28,1.09-.44,.57-.76,.74c-.32,.17-.67,.26-1.06,.26Zm0-.81c.34,0,.61-.12,.83-.36,.22-.24,.33-.54,.33-.92s-.11-.68-.33-.92c-.22-.24-.5-.37-.83-.37s-.61,.12-.83,.37-.33,.55-.33,.92,.11,.68,.33,.92c.22,.24,.49,.36,.83,.36Z"/><path d="M62.15,38.94v-3.2h-.67v-.76h.67v-.13c0-.54,.13-.95,.4-1.24s.64-.43,1.14-.43c.13,0,.25,.01,.39,.04,.13,.03,.24,.07,.34,.12l-.18,.71c-.12-.06-.25-.09-.39-.09-.26,0-.45,.07-.57,.21s-.19,.36-.19,.66v.15h1.17v.76h-1.17v3.2h-.92Z"/><path d="M18.37,48.5c-.44,0-.77-.12-1-.37s-.34-.61-.34-1.09v-1.86h-.67v-.76h.42c.12,0,.2-.02,.25-.07,.05-.05,.07-.13,.07-.24v-.68h.85v.99h1.2v.76h-1.2v1.76c0,.27,.05,.47,.15,.59,.1,.12,.25,.19,.47,.19s.41-.05,.61-.14l.16,.69c-.1,.07-.24,.13-.42,.17-.17,.04-.36,.06-.55,.06Z"/><path d="M22.79,48.39v-2.31c0-.32-.07-.55-.21-.71-.14-.16-.35-.24-.62-.24-.29,0-.52,.1-.69,.29-.17,.19-.25,.47-.25,.82v2.16h-.92v-5.66h.92v2.22c.13-.21,.29-.36,.5-.47s.44-.17,.7-.17c.47,0,.84,.15,1.1,.45,.26,.3,.39,.72,.39,1.26v2.37h-.92Z"/><path d="M28.24,48.06c-.17,.14-.39,.25-.65,.33s-.56,.11-.88,.11c-.67,0-1.19-.19-1.57-.56-.38-.37-.57-.88-.57-1.54,0-.42,.09-.79,.26-1.11,.17-.32,.41-.56,.71-.73,.3-.17,.63-.26,1-.26,.54,0,.97,.17,1.28,.52s.47,.81,.47,1.4v.44h-2.79c.04,.34,.16,.61,.38,.79s.5,.28,.86,.28c.22,0,.44-.03,.67-.09,.23-.06,.41-.15,.56-.25l.29,.66Zm-1.74-3.01c-.27,0-.5,.08-.68,.25-.18,.17-.29,.4-.33,.69h1.91c-.02-.3-.1-.53-.26-.7-.16-.17-.37-.25-.65-.25Z"/><path d="M33.6,43.11l2,5.28h-1.05l-.43-1.24h-2.13l-.42,1.24h-1.05l2-5.28h1.07Zm-1.33,3.22h1.57l-.79-2.31-.79,2.31Z"/><path d="M36.28,43.11h1.93c.54,0,.97,.12,1.28,.36,.31,.24,.46,.57,.46,.98,0,.24-.05,.44-.16,.63-.1,.18-.25,.32-.45,.43,.34,.11,.6,.27,.77,.49,.17,.22,.26,.5,.26,.84,0,.51-.17,.89-.52,1.16-.35,.26-.86,.39-1.54,.39h-2.03v-5.28Zm1.9,2.11c.27,0,.48-.06,.63-.17s.22-.28,.22-.5-.08-.37-.22-.48-.36-.17-.64-.17h-.91v1.32h.94Zm.11,2.37c.38,0,.66-.06,.84-.19,.18-.13,.28-.32,.28-.59s-.09-.46-.28-.6c-.19-.14-.46-.21-.83-.21h-1.06v1.59h1.05Z"/><path d="M41.35,43.11h1.93c.54,0,.97,.12,1.28,.36,.31,.24,.46,.57,.46,.98,0,.24-.05,.44-.16,.63-.1,.18-.25,.32-.45,.43,.34,.11,.6,.27,.77,.49,.17,.22,.26,.5,.26,.84,0,.51-.17,.89-.52,1.16-.35,.26-.86,.39-1.54,.39h-2.03v-5.28Zm1.9,2.11c.27,0,.48-.06,.63-.17s.22-.28,.22-.5-.08-.37-.22-.48-.36-.17-.64-.17h-.91v1.32h.94Zm.11,2.37c.38,0,.66-.06,.84-.19,.18-.13,.28-.32,.28-.59s-.09-.46-.28-.6c-.19-.14-.46-.21-.83-.21h-1.06v1.59h1.05Z"/><path d="M51.87,46.4h-1.09v-.84h1.46c.21,0,.36,.04,.44,.11,.08,.08,.12,.22,.12,.43v1.87c-.5,.36-1.15,.54-1.93,.54-.44,0-.83-.07-1.19-.21-.35-.14-.65-.33-.89-.57-.24-.25-.43-.54-.55-.87s-.19-.7-.19-1.1c0-.56,.12-1.05,.35-1.47,.23-.42,.56-.74,.97-.96,.41-.22,.89-.33,1.42-.33,.38,0,.74,.06,1.07,.19,.33,.13,.6,.3,.81,.52l-.53,.68c-.17-.15-.37-.27-.6-.36-.23-.09-.47-.13-.72-.13-.54,0-.97,.17-1.29,.5-.32,.33-.48,.78-.48,1.35s.16,1.04,.49,1.37,.78,.5,1.35,.5c.39,0,.71-.06,.97-.17v-1.06Z"/><path d="M56.22,45.26c-.08-.03-.22-.04-.41-.04-.35,0-.62,.1-.81,.31-.19,.21-.29,.5-.29,.86v1.99h-.92v-3.97h.85v.73c.12-.25,.28-.45,.49-.58,.21-.14,.45-.21,.72-.21,.12,0,.24,.02,.36,.06v.84Z"/><path d="M58.78,48.5c-.41,0-.78-.09-1.1-.28s-.57-.43-.74-.75c-.17-.32-.26-.67-.26-1.06,0-.41,.09-.78,.28-1.1,.19-.32,.44-.57,.76-.74,.32-.17,.67-.26,1.07-.26s.77,.09,1.09,.28c.32,.19,.57,.44,.74,.76,.17,.32,.26,.67,.26,1.07s-.09,.77-.28,1.09-.44,.57-.76,.74c-.32,.17-.67,.26-1.06,.26Zm0-.81c.34,0,.61-.12,.83-.36,.22-.24,.33-.54,.33-.92s-.11-.68-.33-.92c-.22-.24-.5-.37-.83-.37s-.61,.12-.83,.37-.33,.55-.33,.92,.11,.68,.33,.92c.22,.24,.49,.36,.83,.36Z"/><path d="M63.21,48.5c-.47,0-.83-.15-1.1-.45-.27-.3-.4-.72-.4-1.25v-2.38h.92v2.32c0,.31,.07,.55,.21,.71,.14,.16,.34,.24,.61,.24,.29,0,.52-.1,.69-.29s.25-.47,.25-.83v-2.16h.92v3.97h-.85v-.57c-.13,.22-.31,.39-.52,.5-.22,.12-.46,.17-.74,.17Z"/><path d="M66.39,49.98v-5.56h.9v.61c.15-.23,.34-.4,.58-.53,.24-.13,.5-.19,.78-.19,.36,0,.68,.09,.96,.28s.5,.43,.65,.75c.15,.32,.22,.68,.22,1.07s-.08,.78-.24,1.1-.38,.56-.66,.73c-.28,.17-.59,.26-.93,.26-.29,0-.55-.06-.78-.18-.23-.12-.42-.29-.56-.52v2.17h-.92Zm2.04-2.29c.33,0,.59-.12,.8-.36,.21-.24,.31-.54,.31-.92s-.1-.68-.31-.92-.48-.37-.8-.37c-.34,0-.62,.12-.84,.36s-.33,.55-.33,.93,.11,.68,.33,.92c.22,.24,.5,.36,.84,.36Z"/></g><g><rect class="cls-1" x="75.18" y="43.19" width="61.23" height="5.43"/><g><path d="M111.55,32.85l-2.11-2.62-1.58,1.95-3.97-5.17,5.51,.02v-3.62h-10.81v3.56l1.97,2.12c-.18,.1-1.36,.62-1.75,.88-1.08,.72-2.02,1.72-2.39,2.99-.68,2.32,.51,4.88,2.64,5.96,2.09,1.06,4.89,.84,6.99-.1,.43-.2,.84-.46,1.22-.73,.04-.03,.17-.12,.31-.24l1.48,1.76h4.81l-3.91-4.79,1.58-1.94Zm-7.85,3.23c-.79,.26-1.78,.15-2.48-.33-.17-.12-.32-.27-.45-.43-.46-.6-.56-1.44-.11-2.1,.47-.69,1.27-1.15,2.01-1.5l.48,.6,2.22,2.83c-.78,.51-1.57,.89-1.69,.93Z"/><path d="M129.06,30.68s5.47-.87,5.47-7.1c0-4.38-2.76-7.49-8.33-7.49h-11.39v23.51h5.45v-8.9h2.48l7.12,8.9h6.34l-7.14-8.92Zm-3.52-3.8h-5.33v-6.31h5.33c2.26,0,3.67,.97,3.67,3.16,0,2-1.32,3.16-3.67,3.16Z"/><path d="M91.14,27.42c2.01-.94,3.11-2.75,3.11-4.96,0-3.86-2.88-6.37-7.73-6.37h-11.35v23.51h11.75c5.46,0,8.07-3.04,8.07-6.58,0-2.62-1.34-4.7-3.85-5.61Zm-10.48-7.49h4.96c1.98,0,3.15,.94,3.15,2.61s-1.17,2.73-3.42,2.73h-4.7v-5.34Zm5.26,16.09h-5.26v-7.17h5.36c2.25,0,3.6,1.23,3.6,3.59,0,2.2-1.28,3.59-3.7,3.59Z"/></g></g></svg>